<svg width="282" height="346" viewBox="0 0 282 346" fill="none" xmlns="http://www.w3.org/2000/svg">
<path d="M222.293 7.9324C194.293 -30.0676 152.793 77.9324 80.2931 131.432C56.6931 138.232 64.793 152.266 71.793 158.432L109.793 166.932C102.96 175.932 87.493 194.132 80.2931 194.932C71.2932 195.932 49.7931 225.432 31.7931 219.432C13.7931 213.432 -16.2069 245.432 10.7931 284.432C37.7931 323.432 74.2931 257.432 109.793 219.432C138.193 189.032 135.626 224.099 130.793 245.432C116.96 256.432 97.5931 275.232 130.793 262.432C163.993 249.632 138.96 278.099 122.293 293.932C101.46 303.432 67.0931 326.532 96.2931 342.932C132.793 363.432 195.293 262.432 202.793 262.432C208.793 262.432 240.96 233.766 256.293 219.432C265.793 202.766 271.093 177.032 216.293 207.432C147.793 245.432 184.293 205.932 173.293 203.432C164.493 201.432 194.96 183.266 211.293 174.432L263.793 139.932C271.126 131.432 284.793 108.332 280.793 83.9324C275.793 53.4324 245.293 114.432 195.293 139.932C145.293 165.432 161.293 122.932 156.293 114.432C151.293 105.932 222.293 82.9324 222.293 59.4324C222.293 35.9324 250.293 45.9324 222.293 7.9324Z" fill="#F1CC59" fill-opacity="0.2"/>
</svg>
