<svg width="50" height="48" viewBox="0 0 50 48" fill="none" xmlns="http://www.w3.org/2000/svg">
<path d="M37.9773 0.00654077H13.5365C13.5365 0.00654077 2.44409 -0.552257 0.940037 8.66007C-0.564018 17.8724 0.188011 37.9891 0.188011 37.9891C0.188011 37.9891 -0.376007 47.0134 9.58834 47.5774C19.5527 48.1414 37.9773 47.5774 37.9773 47.5774C37.9773 47.5774 48.5266 46.6374 48.8817 38.9291C49.2368 31.2209 48.8817 9.03608 48.8817 9.03608C48.8817 9.03608 48.8817 0.00654077 37.9773 0.00654077Z" fill="#F25C24"/>
<path d="M31.3762 19.6845C30.0956 19.6845 29.0575 17.973 29.0575 15.8617C29.0575 13.7505 30.0956 12.0389 31.3762 12.0389C32.6568 12.0389 33.695 13.7505 33.695 15.8617C33.695 17.973 32.6568 19.6845 31.3762 19.6845Z" fill="#943804"/>
<path d="M15.9597 19.6845C14.6791 19.6845 13.6409 17.973 13.6409 15.8617C13.6409 13.7505 14.6791 12.0389 15.9597 12.0389C17.2403 12.0389 18.2784 13.7505 18.2784 15.8617C18.2784 17.973 17.2403 19.6845 15.9597 19.6845Z" fill="#943804"/>
<path d="M35.0998 38.4278C35.0998 38.4278 33.4547 26.1186 24.5035 25.4553C16.7012 25.4553 13.9281 38.4278 13.9281 38.4278H35.0998Z" fill="#88200E"/>
</svg>
