<svg width="50" height="48" viewBox="0 0 50 48" fill="none" xmlns="http://www.w3.org/2000/svg">
<path d="M37.9773 0.00654077H13.5365C13.5365 0.00654077 2.44409 -0.552257 0.940037 8.66007C-0.564018 17.8724 0.188011 37.9891 0.188011 37.9891C0.188011 37.9891 -0.376007 47.0134 9.58834 47.5774C19.5527 48.1414 37.9773 47.5774 37.9773 47.5774C37.9773 47.5774 48.5266 46.6374 48.8817 38.9291C49.2368 31.2209 48.8817 9.03608 48.8817 9.03608C48.8817 9.03608 48.8817 0.00654077 37.9773 0.00654077Z" fill="#F7B02B"/>
<path d="M30.9898 19.6845C29.7092 19.6845 28.671 17.973 28.671 15.8617C28.671 13.7505 29.7092 12.0389 30.9898 12.0389C32.2704 12.0389 33.3085 13.7505 33.3085 15.8617C33.3085 17.973 32.2704 19.6845 30.9898 19.6845Z" fill="#AB6B00"/>
<path d="M15.5732 19.6845C14.2926 19.6845 13.2545 17.973 13.2545 15.8617C13.2545 13.7505 14.2926 12.0389 15.5732 12.0389C16.8538 12.0389 17.892 13.7505 17.892 15.8617C17.892 17.973 16.8538 19.6845 15.5732 19.6845Z" fill="#AB6B00"/>
<path d="M13.2544 32.0826C13.2544 32.0826 15.1345 25.377 23.6575 25.0741C32.1804 24.7712 34.2485 32.0826 34.2485 32.0826" stroke="#AB6B00" stroke-width="3" stroke-linecap="round" stroke-linejoin="round"/>
</svg>
