<svg width="50" height="48" viewBox="0 0 50 48" fill="none" xmlns="http://www.w3.org/2000/svg">
<path d="M37.9773 0.00654077H13.5365C13.5365 0.00654077 2.44409 -0.552257 0.940037 8.66007C-0.564018 17.8724 0.188011 37.9891 0.188011 37.9891C0.188011 37.9891 -0.376007 47.0134 9.58834 47.5774C19.5527 48.1414 37.9773 47.5774 37.9773 47.5774C37.9773 47.5774 48.5266 46.6374 48.8817 38.9291C49.2368 31.2209 48.8817 9.03608 48.8817 9.03608C48.8817 9.03608 48.8817 0.00654077 37.9773 0.00654077Z" fill="#80DD42"/>
<path d="M32.8646 19.6845C31.584 19.6845 30.5459 17.973 30.5459 15.8617C30.5459 13.7505 31.584 12.0389 32.8646 12.0389C34.1452 12.0389 35.1833 13.7505 35.1833 15.8617C35.1833 17.973 34.1452 19.6845 32.8646 19.6845Z" fill="#377E08"/>
<path d="M17.448 19.6845C16.1674 19.6845 15.1293 17.973 15.1293 15.8617C15.1293 13.7505 16.1674 12.0389 17.448 12.0389C18.7286 12.0389 19.7668 13.7505 19.7668 15.8617C19.7668 17.973 18.7286 19.6845 17.448 19.6845Z" fill="#377E08"/>
<path d="M35.7892 29.1476H13.2597" stroke="#377E08" stroke-width="3" stroke-linecap="round" stroke-linejoin="round"/>
</svg>
