<svg width="50" height="48" viewBox="0 0 50 48" fill="none" xmlns="http://www.w3.org/2000/svg">
<path d="M37.9773 0.00654077H13.5365C13.5365 0.00654077 2.44409 -0.552257 0.940037 8.66007C-0.564018 17.8724 0.188011 37.9891 0.188011 37.9891C0.188011 37.9891 -0.376007 47.0134 9.58834 47.5774C19.5527 48.1414 37.9773 47.5774 37.9773 47.5774C37.9773 47.5774 48.5266 46.6374 48.8817 38.9291C49.2368 31.2209 48.8817 9.03608 48.8817 9.03608C48.8817 9.03608 48.8817 0.00654077 37.9773 0.00654077Z" fill="#51B0EC"/>
<path d="M36.4733 28.0248H12.9724C12.9724 28.0248 13.5991 37.2371 24.5035 37.2371C34.7812 37.2998 36.4733 28.0248 36.4733 28.0248Z" fill="#006064"/>
<path d="M32.2118 20.5045C30.9312 20.5045 29.893 18.793 29.893 16.6817C29.893 14.5704 30.9312 12.8589 32.2118 12.8589C33.4924 12.8589 34.5305 14.5704 34.5305 16.6817C34.5305 18.793 33.4924 20.5045 32.2118 20.5045Z" fill="#006064"/>
<path d="M16.7953 20.5045C15.5147 20.5045 14.4765 18.793 14.4765 16.6817C14.4765 14.5704 15.5147 12.8589 16.7953 12.8589C18.0759 12.8589 19.114 14.5704 19.114 16.6817C19.114 18.793 18.0759 20.5045 16.7953 20.5045Z" fill="#006064"/>
</svg>
