<svg width="50" height="48" viewBox="0 0 50 48" fill="none" xmlns="http://www.w3.org/2000/svg">
<path d="M37.9773 0.00654077H13.5365C13.5365 0.00654077 2.44409 -0.552257 0.940037 8.66007C-0.564018 17.8724 0.188011 37.9891 0.188011 37.9891C0.188011 37.9891 -0.376007 47.0134 9.58834 47.5774C19.5527 48.1414 37.9773 47.5774 37.9773 47.5774C37.9773 47.5774 48.5266 46.6374 48.8817 38.9291C49.2368 31.2209 48.8817 9.03608 48.8817 9.03608C48.8817 9.03608 48.8817 0.00654077 37.9773 0.00654077Z" fill="#5CDD9E"/>
<path d="M30.9897 19.6845C29.7091 19.6845 28.671 17.973 28.671 15.8617C28.671 13.7505 29.7091 12.0389 30.9897 12.0389C32.2703 12.0389 33.3085 13.7505 33.3085 15.8617C33.3085 17.973 32.2703 19.6845 30.9897 19.6845Z" fill="#00612A"/>
<path d="M15.5732 19.6845C14.2926 19.6845 13.2544 17.973 13.2544 15.8617C13.2544 13.7505 14.2926 12.0389 15.5732 12.0389C16.8538 12.0389 17.8919 13.7505 17.8919 15.8617C17.8919 17.973 16.8538 19.6845 15.5732 19.6845Z" fill="#006733"/>
<path d="M34.2485 27.1631C34.2485 27.1631 32.3684 33.8687 23.8455 34.1507C15.3225 34.4327 13.2544 27.1631 13.2544 27.1631" stroke="#006733" stroke-width="3" stroke-linecap="round" stroke-linejoin="round"/>
</svg>
