<svg width="80" height="80" viewBox="0 0 80 80" fill="none" xmlns="http://www.w3.org/2000/svg">
<path d="M75.0207 57.6002C74.289 61.3335 71.1807 64.1785 67.3407 64.7118C61.3057 65.6002 51.2473 66.6668 39.909 66.6668C28.754 66.6668 18.6957 65.6002 12.4773 64.7118C8.63732 64.1785 5.52732 61.3335 4.79732 57.6002C4.06565 53.5118 3.33398 47.4668 3.33398 40.0002C3.33398 32.5335 4.06565 26.4885 4.79732 22.4002C5.52898 18.6668 8.63732 15.8218 12.4773 15.2885C18.5123 14.4002 28.5707 13.3335 39.909 13.3335C51.2473 13.3335 61.1223 14.4002 67.3407 15.2885C71.1807 15.8218 74.2907 18.6668 75.0207 22.4002C75.7523 26.4885 76.6673 32.5335 76.6673 40.0002C76.484 47.4668 75.7523 53.5118 75.0207 57.6002Z" fill="url(#paint0_linear_322_459)"/>
<path opacity="0.05" d="M53.92 37.3999L34.86 24.6933C33.8983 24.0516 32.67 23.9916 31.6517 24.5383C30.6333 25.0833 30 26.1383 30 27.2933V52.7066C30 53.8616 30.6333 54.9183 31.6517 55.4633C32.115 55.7116 32.62 55.8333 33.125 55.8333C33.7317 55.8333 34.335 55.6566 34.8583 55.3083L53.9183 42.6016C54.79 42.0199 55.31 41.0483 55.31 40.0016C55.3117 38.9533 54.79 37.9816 53.92 37.3999Z" fill="black"/>
<path opacity="0.07" d="M34.469 25.395L52.4523 37.385C53.6007 38.21 54.374 38.9484 54.374 39.9067C54.374 40.865 54.0007 41.5334 53.1823 42.13C52.564 42.58 34.774 54.4034 34.774 54.4034C33.2723 55.41 30.834 55.1967 30.834 51.905V27.9067C30.834 24.565 33.474 24.7317 34.469 25.395Z" fill="black"/>
<path d="M31.666 52.6131V27.3881C31.666 26.1498 33.046 25.4098 34.0777 26.0981L52.9977 38.7114C53.9193 39.3248 53.9193 40.6781 52.9977 41.2931L34.0777 53.9064C33.046 54.5914 31.666 53.8531 31.666 52.6131Z" fill="white"/>
<defs>
<linearGradient id="paint0_linear_322_459" x1="16.3607" y1="16.4518" x2="68.744" y2="68.8352" gradientUnits="userSpaceOnUse">
<stop stop-color="#F44F5A"/>
<stop offset="0.443" stop-color="#EE3D4A"/>
<stop offset="1" stop-color="#E52030"/>
</linearGradient>
</defs>
</svg>
