<svg width="80" height="80" viewBox="0 0 80 80" fill="none" xmlns="http://www.w3.org/2000/svg">
<path d="M56.6941 69.9834L23.3608 70.0151C16.0274 70.0217 10.0224 64.0284 10.0141 56.6951L9.98243 23.3617C9.97576 16.0284 15.9691 10.0234 23.3024 10.0151L56.6358 9.9834C63.9691 9.97674 69.9741 15.9701 69.9824 23.3034L70.0141 56.6367C70.0224 63.9717 64.0274 69.9767 56.6941 69.9834Z" fill="url(#paint0_radial_322_464)"/>
<path d="M56.6941 69.9834L23.3608 70.0151C16.0274 70.0217 10.0224 64.0284 10.0141 56.6951L9.98243 23.3617C9.97576 16.0284 15.9691 10.0234 23.3024 10.0151L56.6358 9.9834C63.9691 9.97674 69.9741 15.9701 69.9824 23.3034L70.0141 56.6367C70.0224 63.9717 64.0274 69.9767 56.6941 69.9834Z" fill="url(#paint1_radial_322_464)"/>
<path d="M40.0007 51.6668C33.569 51.6668 28.334 46.4335 28.334 40.0002C28.334 33.5668 33.569 28.3335 40.0007 28.3335C46.4323 28.3335 51.6673 33.5668 51.6673 40.0002C51.6673 46.4335 46.4323 51.6668 40.0007 51.6668ZM40.0007 31.6668C35.4057 31.6668 31.6673 35.4052 31.6673 40.0002C31.6673 44.5952 35.4057 48.3335 40.0007 48.3335C44.5956 48.3335 48.334 44.5952 48.334 40.0002C48.334 35.4052 44.5956 31.6668 40.0007 31.6668Z" fill="white"/>
<path d="M52.5 30C53.8807 30 55 28.8807 55 27.5C55 26.1193 53.8807 25 52.5 25C51.1193 25 50 26.1193 50 27.5C50 28.8807 51.1193 30 52.5 30Z" fill="white"/>
<path d="M50.0007 61.6668H30.0007C23.569 61.6668 18.334 56.4335 18.334 50.0002V30.0002C18.334 23.5668 23.569 18.3335 30.0007 18.3335H50.0007C56.4323 18.3335 61.6673 23.5668 61.6673 30.0002V50.0002C61.6673 56.4335 56.4323 61.6668 50.0007 61.6668ZM30.0007 21.6668C25.4057 21.6668 21.6673 25.4052 21.6673 30.0002V50.0002C21.6673 54.5952 25.4057 58.3335 30.0007 58.3335H50.0007C54.5957 58.3335 58.334 54.5952 58.334 50.0002V30.0002C58.334 25.4052 54.5957 21.6668 50.0007 21.6668H30.0007Z" fill="white"/>
<defs>
<radialGradient id="paint0_radial_322_464" cx="0" cy="0" r="1" gradientUnits="userSpaceOnUse" gradientTransform="translate(32.2991 70.0584) scale(74.8317 74.8317)">
<stop stop-color="#FFDD55"/>
<stop offset="0.328" stop-color="#FF543F"/>
<stop offset="0.348" stop-color="#FC5245"/>
<stop offset="0.504" stop-color="#E64771"/>
<stop offset="0.643" stop-color="#D53E91"/>
<stop offset="0.761" stop-color="#CC39A4"/>
<stop offset="0.841" stop-color="#C837AB"/>
</radialGradient>
<radialGradient id="paint1_radial_322_464" cx="0" cy="0" r="1" gradientUnits="userSpaceOnUse" gradientTransform="translate(19.6424 9.23391) scale(49.6883 33.1073)">
<stop stop-color="#4168C9"/>
<stop offset="0.999" stop-color="#4168C9" stop-opacity="0"/>
</radialGradient>
</defs>
</svg>
