<svg width="80" height="80" viewBox="0 0 80 80" fill="none" xmlns="http://www.w3.org/2000/svg">
<path d="M39.9993 6.6665C21.5893 6.6665 6.66602 21.5898 6.66602 39.9998C6.66602 58.4098 21.5893 73.3332 39.9993 73.3332C58.4093 73.3332 73.3327 58.4098 73.3327 39.9998C73.3327 21.5898 58.4093 6.6665 39.9993 6.6665Z" fill="url(#paint0_linear_322_470)"/>
<path d="M44.5126 48.8352H53.1392L54.4942 40.0718H44.5126V35.2818C44.5126 31.6418 45.7026 28.4135 49.1076 28.4135H54.5792V20.7668C53.6176 20.6368 51.5842 20.3535 47.7426 20.3535C39.7192 20.3535 35.0159 24.5902 35.0159 34.2435V40.0735H26.7676V48.8368H35.0142V72.9235C36.6476 73.1669 38.3026 73.3335 40.0009 73.3335C41.5359 73.3335 43.0342 73.1935 44.5126 72.9935V48.8352Z" fill="white"/>
<defs>
<linearGradient id="paint0_linear_322_470" x1="16.6543" y1="16.6548" x2="67.691" y2="67.6915" gradientUnits="userSpaceOnUse">
<stop stop-color="#2AA4F4"/>
<stop offset="1" stop-color="#007AD9"/>
</linearGradient>
</defs>
</svg>
