<svg width="376" height="400" viewBox="0 0 376 400" fill="none" xmlns="http://www.w3.org/2000/svg">
<path d="M246.888 228.845C260.846 241.305 269.075 256.54 271.575 274.549C274.223 292.298 271.01 309.118 261.936 325.01C248.846 347.936 230.358 361.562 206.47 365.887C182.992 370.1 156.924 364.025 128.266 347.663L0.478088 274.701L157.111 0.367529L280.6 70.8747C308.477 86.7909 326.586 105.594 334.929 127.285C343.532 149.125 341.586 170.986 329.092 192.87C319.869 209.023 307.91 219.986 293.214 225.759C278.778 231.68 263.336 232.709 246.888 228.845ZM160.569 149.506L204.337 174.496C215.279 180.743 224.955 183.158 233.364 181.741C242.182 180.213 249.269 174.759 254.624 165.38C259.979 156.001 261.073 147.126 257.907 138.755C255.002 130.532 248.078 123.297 237.136 117.05L193.368 92.0598L160.569 149.506ZM147.333 287.04C158.536 293.436 168.546 295.87 177.365 294.341C186.592 292.701 193.958 287.061 199.462 277.421C204.966 267.782 206.023 258.367 202.633 249.177C199.504 240.136 192.339 232.418 181.136 226.022L132.678 198.354L98.094 258.926L147.333 287.04Z" fill="#282828"/>
</svg>
