<svg width="40" height="49" viewBox="0 0 40 49" fill="none" xmlns="http://www.w3.org/2000/svg">
<path d="M39.7362 10.9624L28.8422 0.234489C28.6957 0.0879335 28.4905 0 28.2755 0H8.17782C5.13923 0 2.67709 2.59893 2.67709 5.80362V27.2203H0V41.7391H2.67709V43.0484C2.67709 46.2433 5.149 48.852 8.17782 48.852H34.4993C37.5379 48.852 40 46.2531 40 43.0484V11.5975C40 11.363 39.9121 11.1285 39.7362 10.9624ZM28.002 1.79775L37.4792 11.1383H32.3205C29.9365 11.1383 28.002 9.23302 28.002 6.8979V1.79775ZM38.339 43.0484C38.339 45.2858 36.6194 47.1031 34.4993 47.1031H8.17782C6.05764 47.1031 4.33806 45.2858 4.33806 43.0484V41.7391H22.6087C26.1749 41.7391 29.0572 38.4856 29.0572 34.4797C29.0572 30.4739 26.1651 27.2203 22.6087 27.2203H4.33806V5.80362C4.33806 3.56619 6.05764 1.7489 8.17782 1.7489H26.341V6.8979C26.341 10.2003 29.0181 12.8872 32.3205 12.8872H38.339V43.0484ZM5.13923 38.1436V30.8158H7.94333C8.75427 30.8158 9.38935 31.021 9.83879 31.4411C10.2882 31.8613 10.5227 32.4084 10.5227 33.0923C10.5227 33.7763 10.298 34.3332 9.83879 34.7435C9.37958 35.1539 8.7445 35.3688 7.94333 35.3688H6.36053V38.1436H5.13923ZM12.0078 38.1436V30.8158H14.4309C15.3591 30.8158 16.1114 31.1089 16.6976 31.6854C17.2838 32.2618 17.5672 33.0142 17.5672 33.9228V35.0366C17.5672 35.9551 17.2741 36.6976 16.6976 37.2741C16.1114 37.8505 15.3591 38.1436 14.4309 38.1436H12.0078ZM23.4001 34.0401V35.0171H20.4494V38.1436H19.2184V30.8158H23.9082V31.7929H20.4397V34.0303H23.4001V34.0401Z" fill="#ED1C24"/>
<path d="M8.96917 34.0205C9.19389 33.7763 9.31113 33.4734 9.31113 33.1021C9.31113 32.7308 9.19389 32.4182 8.96917 32.1739C8.74445 31.9297 8.40249 31.8026 7.94328 31.8026H6.36047V34.3918H7.94328C8.40249 34.382 8.73468 34.2648 8.96917 34.0205Z" fill="#ED1C24"/>
<path d="M14.4308 31.8026H13.2291V37.1764H14.4308C15.017 37.1764 15.486 36.981 15.828 36.5804C16.17 36.1798 16.3458 35.6717 16.3458 35.0464V33.9228C16.3458 33.3073 16.17 32.7992 15.828 32.3986C15.486 31.9981 15.017 31.8026 14.4308 31.8026Z" fill="#ED1C24"/>
</svg>
