<svg width="40" height="40" viewBox="0 0 40 40" fill="none" xmlns="http://www.w3.org/2000/svg">
<path d="M23.5498 25.839L21.193 23.4807L23.5661 21.1093C24.1961 20.4778 24.55 19.6222 24.55 18.7301C24.55 17.8381 24.1961 16.9824 23.5661 16.3509L16.4502 9.235C15.8091 8.62306 14.9569 8.28163 14.0706 8.28163C13.1844 8.28163 12.3322 8.62306 11.6911 9.235L9.31802 11.6073C8.68795 12.2388 8.33411 13.0944 8.33411 13.9864C8.33411 14.8785 8.68795 15.7341 9.31802 16.3656L6.96125 18.7223C5.70665 17.4655 5.00201 15.7622 5.00201 13.9864C5.00201 12.2106 5.70665 10.5073 6.96125 9.25048L9.3343 6.87833C9.95625 6.25629 10.6946 5.76285 11.5073 5.42619C12.32 5.08953 13.191 4.91626 14.0706 4.91626C14.9503 4.91626 15.8213 5.08953 16.6339 5.42619C17.4466 5.76285 18.185 6.25629 18.8069 6.87833L25.9228 13.9942C27.1767 15.2516 27.8808 16.9548 27.8808 18.7305C27.8808 20.5063 27.1767 22.2095 25.9228 23.4669L23.5498 25.839Z" fill="#4C9AE8"/>
<path d="M25.9294 34.9161C25.0494 34.9184 24.1777 34.7462 23.3647 34.4094C22.5517 34.0726 21.8136 33.578 21.193 32.9541L14.0771 25.8382C12.8233 24.5808 12.1191 22.8776 12.1191 21.1018C12.1191 19.3261 12.8233 17.6229 14.0771 16.3655L16.4502 13.9933L18.807 16.3516L16.4339 18.7231C15.8039 19.3546 15.45 20.2102 15.45 21.1023C15.45 21.9943 15.8039 22.8499 16.4339 23.4814L23.5498 30.5973C24.1909 31.2093 25.0431 31.5507 25.9294 31.5507C26.8156 31.5507 27.6678 31.2093 28.3089 30.5973L30.682 28.2251C31.312 27.5936 31.6659 26.738 31.6659 25.8459C31.6659 24.9539 31.312 24.0982 30.682 23.4668L33.0387 21.11C34.2926 22.3673 34.9967 24.0706 34.9967 25.8463C34.9967 27.622 34.2926 29.3252 33.0387 30.5826L30.6657 32.9548C30.0451 33.5787 29.307 34.0733 28.494 34.41C27.681 34.7467 26.8093 34.9187 25.9294 34.9161Z" fill="#4C9AE8"/>
</svg>
