<svg width="140" height="49" viewBox="0 0 140 49" fill="none" xmlns="http://www.w3.org/2000/svg">
<path d="M30.25 27.9C30.25 30.0333 29.6667 31.7667 28.5 33.1C27.3667 34.4333 25.8333 35.4167 23.9 36.05C21.9667 36.6833 19.8333 37 17.5 37H0.0500002V1.5H20.65C22.3167 1.5 23.75 1.95 24.95 2.85C26.1833 3.71667 27.1167 4.85 27.75 6.25C28.4167 7.65 28.75 9.1 28.75 10.6C28.75 12.2333 28.3167 13.8167 27.45 15.35C26.6167 16.8833 25.35 18.0333 23.65 18.8C25.6833 19.4 27.2833 20.45 28.45 21.95C29.65 23.45 30.25 25.4333 30.25 27.9ZM20.35 25.9C20.35 25.3 20.2333 24.7833 20 24.35C19.8 23.8833 19.5167 23.5167 19.15 23.25C18.7833 22.9833 18.35 22.85 17.85 22.85H9.8V28.8H17.5C18.0333 28.8 18.5167 28.6833 18.95 28.45C19.3833 28.2167 19.7167 27.8833 19.95 27.45C20.2167 27.0167 20.35 26.5 20.35 25.9ZM9.8 9.8V15.25H16.45C16.8833 15.25 17.3 15.1833 17.7 15.05C18.1 14.8833 18.4333 14.6 18.7 14.2C18.9667 13.8 19.1 13.2333 19.1 12.5C19.1 11.8333 18.9833 11.3167 18.75 10.95C18.55 10.55 18.2667 10.2667 17.9 10.1C17.5667 9.9 17.1833 9.8 16.75 9.8H9.8ZM34.4715 0.499999H43.9715V26.55C43.9715 27.5167 44.1715 28.2667 44.5715 28.8C45.0048 29.3 45.6215 29.55 46.4215 29.55C46.8215 29.55 47.2548 29.4833 47.7215 29.35C48.1882 29.2167 48.6215 29.0333 49.0215 28.8L50.2215 35.8C49.0882 36.3333 47.8048 36.75 46.3715 37.05C44.9715 37.35 43.6382 37.5 42.3715 37.5C39.8382 37.5 37.8882 36.85 36.5215 35.55C35.1548 34.2167 34.4715 32.3333 34.4715 29.9V0.499999ZM66.1449 37.5C63.8116 37.5 61.7449 37.1333 59.9449 36.4C58.1449 35.6667 56.6283 34.6667 55.3949 33.4C54.1949 32.1 53.2783 30.6333 52.6449 29C52.0449 27.3667 51.7449 25.65 51.7449 23.85C51.7449 22.05 52.0449 20.3333 52.6449 18.7C53.2783 17.0333 54.1949 15.5667 55.3949 14.3C56.6283 13.0333 58.1449 12.0333 59.9449 11.3C61.7449 10.5667 63.8116 10.2 66.1449 10.2C68.5116 10.2 70.5783 10.5667 72.3449 11.3C74.1449 12.0333 75.6449 13.0333 76.8449 14.3C78.0783 15.5667 78.9949 17.0333 79.5949 18.7C80.2283 20.3333 80.5449 22.05 80.5449 23.85C80.5449 25.65 80.2283 27.3667 79.5949 29C78.9949 30.6333 78.0783 32.1 76.8449 33.4C75.6449 34.6667 74.1449 35.6667 72.3449 36.4C70.5783 37.1333 68.5116 37.5 66.1449 37.5ZM61.4949 23.85C61.4949 25.0167 61.6949 26.0333 62.0949 26.9C62.4949 27.7333 63.0449 28.3833 63.7449 28.85C64.4449 29.2833 65.2449 29.5 66.1449 29.5C67.0449 29.5 67.8449 29.2833 68.5449 28.85C69.2449 28.3833 69.7949 27.7333 70.1949 26.9C70.5949 26.0333 70.7949 25.0167 70.7949 23.85C70.7949 22.6833 70.5949 21.6833 70.1949 20.85C69.7949 19.9833 69.2449 19.3333 68.5449 18.9C67.8449 18.4333 67.0449 18.2 66.1449 18.2C65.2449 18.2 64.4449 18.4333 63.7449 18.9C63.0449 19.3333 62.4949 19.9833 62.0949 20.85C61.6949 21.6833 61.4949 22.6833 61.4949 23.85ZM94.7578 37C93.0578 37 91.4911 36.6667 90.0578 36C88.6578 35.3333 87.4578 34.4 86.4578 33.2C85.4578 32 84.6745 30.6 84.1078 29C83.5745 27.4 83.3078 25.6667 83.3078 23.8C83.3078 21.8333 83.6078 20.0333 84.2078 18.4C84.8078 16.7333 85.6411 15.2833 86.7078 14.05C87.8078 12.8167 89.1078 11.8667 90.6078 11.2C92.1078 10.5333 93.7578 10.2 95.5578 10.2C97.4245 10.2 99.0745 10.5833 100.508 11.35C101.974 12.0833 103.124 13.1667 103.958 14.6V10.7H112.208V34.6C112.208 37.3333 111.541 39.7167 110.208 41.75C108.874 43.7833 107.008 45.35 104.608 46.45C102.208 47.5833 99.4078 48.15 96.2078 48.15C93.4411 48.15 91.0078 47.7167 88.9078 46.85C86.8411 45.9833 85.0078 44.7333 83.4078 43.1L88.4078 37.9C89.3745 38.8 90.5245 39.55 91.8578 40.15C93.2245 40.7833 94.6745 41.1 96.2078 41.1C97.3745 41.1 98.4411 40.8833 99.4078 40.45C100.408 40.0167 101.208 39.3167 101.808 38.35C102.408 37.4167 102.708 36.1667 102.708 34.6V32.9C101.974 34.2667 100.874 35.3 99.4078 36C97.9745 36.6667 96.4245 37 94.7578 37ZM98.1578 29.5C98.6245 29.5 99.0578 29.45 99.4578 29.35C99.8911 29.2167 100.291 29.05 100.658 28.85C101.024 28.6167 101.374 28.3333 101.708 28C102.074 27.6333 102.408 27.2333 102.708 26.8V22.1C102.408 21.3 101.991 20.6167 101.458 20.05C100.924 19.45 100.341 19 99.7078 18.7C99.0745 18.3667 98.4245 18.2 97.7578 18.2C97.0911 18.2 96.4578 18.35 95.8578 18.65C95.2911 18.95 94.7911 19.3833 94.3578 19.95C93.9245 20.4833 93.5911 21.1 93.3578 21.8C93.1245 22.5 93.0078 23.25 93.0078 24.05C93.0078 24.85 93.1245 25.5833 93.3578 26.25C93.6245 26.9167 93.9911 27.5 94.4578 28C94.9245 28.4667 95.4745 28.8333 96.1078 29.1C96.7411 29.3667 97.4245 29.5 98.1578 29.5ZM128.331 37.5C126.031 37.5 123.764 37.1333 121.531 36.4C119.331 35.6333 117.464 34.5333 115.931 33.1L119.181 27.25C120.814 28.3167 122.381 29.15 123.881 29.75C125.414 30.35 126.798 30.65 128.031 30.65C128.731 30.65 129.248 30.5667 129.581 30.4C129.914 30.2 130.081 29.8833 130.081 29.45C130.081 29.15 129.964 28.9 129.731 28.7C129.498 28.5 129.114 28.3 128.581 28.1C128.081 27.9 127.431 27.6833 126.631 27.45C124.564 26.7167 122.831 26.0333 121.431 25.4C120.064 24.7667 119.031 24 118.331 23.1C117.664 22.1667 117.331 20.9333 117.331 19.4C117.331 17.6 117.781 16.0167 118.681 14.65C119.581 13.25 120.864 12.15 122.531 11.35C124.231 10.55 126.264 10.15 128.631 10.15C130.398 10.15 132.164 10.4333 133.931 11C135.731 11.5333 137.464 12.5167 139.131 13.95L135.531 19.75C133.864 18.7167 132.448 17.9833 131.281 17.55C130.148 17.1167 129.131 16.9 128.231 16.9C127.798 16.9 127.414 16.95 127.081 17.05C126.781 17.15 126.548 17.3 126.381 17.5C126.214 17.7 126.131 17.9667 126.131 18.3C126.131 18.6333 126.248 18.9167 126.481 19.15C126.714 19.35 127.081 19.55 127.581 19.75C128.081 19.9167 128.714 20.1167 129.481 20.35C131.748 21.0167 133.598 21.7 135.031 22.4C136.464 23.0667 137.514 23.8833 138.181 24.85C138.881 25.8167 139.231 27.0833 139.231 28.65C139.231 31.4167 138.248 33.5833 136.281 35.15C134.348 36.7167 131.698 37.5 128.331 37.5Z" fill="#282828"/>
</svg>
