<svg width="40" height="40" viewBox="0 0 40 40" fill="none" xmlns="http://www.w3.org/2000/svg">
<g clip-path="url(#clip0_32_201)">
<path d="M2.85718 10.0893C2.85718 9.251 3.55493 8.57144 4.41562 8.57144H35.5845C36.4452 8.57144 37.1429 9.251 37.1429 10.0893C37.1429 10.9276 36.4452 11.6072 35.5845 11.6072H4.41562C3.55493 11.6072 2.85718 10.9276 2.85718 10.0893Z" fill="#282828"/>
<path d="M9.87012 20.7143C9.87012 19.876 10.5679 19.1964 11.4286 19.1964H28.5714C29.4321 19.1964 30.1298 19.876 30.1298 20.7143C30.1298 21.5526 29.4321 22.2322 28.5714 22.2322H11.4286C10.5679 22.2322 9.87012 21.5526 9.87012 20.7143Z" fill="#282828"/>
<path d="M17.6622 29.8214C16.8016 29.8214 16.1038 30.501 16.1038 31.3393C16.1038 32.1776 16.8016 32.8572 17.6622 32.8572H22.3376C23.1982 32.8572 23.896 32.1776 23.896 31.3393C23.896 30.501 23.1982 29.8214 22.3376 29.8214H17.6622Z" fill="#282828"/>
</g>
<defs>
<clipPath id="clip0_32_201">
<rect width="40" height="40" fill="white"/>
</clipPath>
</defs>
</svg>
