<svg width="18" height="18" viewBox="0 0 18 18" fill="none" xmlns="http://www.w3.org/2000/svg">
<path d="M10.0526 9.07543L17.778 1.35C17.8471 1.28089 17.9019 1.19884 17.9393 1.10854C17.9767 1.01824 17.996 0.921454 17.996 0.823714C17.996 0.725975 17.9767 0.629192 17.9393 0.538892C17.9019 0.448593 17.8471 0.366544 17.778 0.297432C17.7089 0.22832 17.6268 0.173497 17.5365 0.136093C17.4462 0.0986898 17.3495 0.0794388 17.2517 0.0794388C17.154 0.0794388 17.0572 0.0986898 16.9669 0.136093C16.8766 0.173497 16.7945 0.22832 16.7254 0.297432L9 7.94343L1.27457 0.217993C1.20546 0.148881 1.12341 0.0940577 1.03311 0.0566543C0.942807 0.019251 0.846025 7.28218e-10 0.748285 0C0.650545 -7.28218e-10 0.553763 0.019251 0.463463 0.0566543C0.373163 0.0940577 0.291114 0.148881 0.222002 0.217993C0.152889 0.287106 0.0980673 0.369154 0.0606639 0.459454C0.0232605 0.549753 0.00400859 0.646536 0.00400859 0.744276C0.00400859 0.842015 0.0232605 0.938799 0.0606639 1.0291C0.0980673 1.1194 0.152889 1.20145 0.222002 1.27056L7.94743 9.07543L0.222002 16.7214C0.151741 16.7899 0.0959 16.8717 0.0577718 16.9621C0.0196436 17.0525 0 17.1496 0 17.2477C0 17.3458 0.0196436 17.4429 0.0577718 17.5333C0.0959 17.6237 0.151741 17.7055 0.222002 17.774C0.287399 17.8453 0.367347 17.9017 0.456433 17.9393C0.545518 17.977 0.641662 17.9951 0.738355 17.9924C0.838026 17.9954 0.93722 17.9775 1.02957 17.9399C1.12191 17.9023 1.20537 17.8458 1.27457 17.774L9 10.0486L16.7254 17.774C16.7908 17.8453 16.8708 17.9017 16.9599 17.9393C17.049 17.977 17.1451 17.9951 17.2418 17.9924C17.3416 17.9967 17.4412 17.9794 17.5337 17.9417C17.6263 17.904 17.7096 17.8468 17.778 17.774C17.8483 17.7055 17.9041 17.6237 17.9422 17.5333C17.9804 17.4429 18 17.3458 18 17.2477C18 17.1496 17.9804 17.0525 17.9422 16.9621C17.9041 16.8717 17.8483 16.7899 17.778 16.7214L10.0526 9.07543Z" fill="#282828"/>
</svg>
