<svg width="80" height="80" viewBox="0 0 80 80" fill="none" xmlns="http://www.w3.org/2000/svg">
<path d="M40.0013 6.6665C21.5913 6.6665 6.66797 21.5898 6.66797 39.9998C6.66797 58.4098 21.5913 73.3332 40.0013 73.3332C58.4113 73.3332 73.3346 58.4098 73.3346 39.9998C73.3346 21.5898 58.4113 6.6665 40.0013 6.6665Z" fill="url(#paint0_linear_356_234)"/>
<path d="M44.5106 48.8352H53.1373L54.4923 40.0718H44.5106V35.2818C44.5106 31.6418 45.7006 28.4135 49.1056 28.4135H54.5773V20.7668C53.6156 20.6368 51.5823 20.3535 47.7406 20.3535C39.7173 20.3535 35.014 24.5902 35.014 34.2435V40.0735H26.7656V48.8368H35.0123V72.9235C36.6456 73.1669 38.3006 73.3335 39.999 73.3335C41.534 73.3335 43.0323 73.1935 44.5106 72.9935V48.8352Z" fill="white"/>
<defs>
<linearGradient id="paint0_linear_356_234" x1="16.6563" y1="16.6548" x2="67.693" y2="67.6915" gradientUnits="userSpaceOnUse">
<stop stop-color="#2AA4F4"/>
<stop offset="1" stop-color="#007AD9"/>
</linearGradient>
</defs>
</svg>
