<svg width="80" height="80" viewBox="0 0 80 80" fill="none" xmlns="http://www.w3.org/2000/svg">
<path d="M56.696 69.9834L23.3627 70.0151C16.0294 70.0217 10.0244 64.0284 10.016 56.6951L9.98438 23.3617C9.97771 16.0284 15.971 10.0234 23.3044 10.0151L56.6377 9.9834C63.971 9.97674 69.976 15.9701 69.9844 23.3034L70.016 56.6367C70.0244 63.9717 64.0294 69.9767 56.696 69.9834Z" fill="url(#paint0_radial_356_228)"/>
<path d="M56.696 69.9834L23.3627 70.0151C16.0294 70.0217 10.0244 64.0284 10.016 56.6951L9.98438 23.3617C9.97771 16.0284 15.971 10.0234 23.3044 10.0151L56.6377 9.9834C63.971 9.97674 69.976 15.9701 69.9844 23.3034L70.016 56.6367C70.0244 63.9717 64.0294 69.9767 56.696 69.9834Z" fill="url(#paint1_radial_356_228)"/>
<path d="M39.9987 51.6668C33.567 51.6668 28.332 46.4335 28.332 40.0002C28.332 33.5668 33.567 28.3335 39.9987 28.3335C46.4304 28.3335 51.6654 33.5668 51.6654 40.0002C51.6654 46.4335 46.4304 51.6668 39.9987 51.6668ZM39.9987 31.6668C35.4037 31.6668 31.6654 35.4052 31.6654 40.0002C31.6654 44.5952 35.4037 48.3335 39.9987 48.3335C44.5937 48.3335 48.332 44.5952 48.332 40.0002C48.332 35.4052 44.5937 31.6668 39.9987 31.6668Z" fill="white"/>
<path d="M52.5 30C53.8807 30 55 28.8807 55 27.5C55 26.1193 53.8807 25 52.5 25C51.1193 25 50 26.1193 50 27.5C50 28.8807 51.1193 30 52.5 30Z" fill="white"/>
<path d="M49.9987 61.6668H29.9987C23.567 61.6668 18.332 56.4335 18.332 50.0002V30.0002C18.332 23.5668 23.567 18.3335 29.9987 18.3335H49.9987C56.4304 18.3335 61.6654 23.5668 61.6654 30.0002V50.0002C61.6654 56.4335 56.4304 61.6668 49.9987 61.6668ZM29.9987 21.6668C25.4037 21.6668 21.6654 25.4052 21.6654 30.0002V50.0002C21.6654 54.5952 25.4037 58.3335 29.9987 58.3335H49.9987C54.5937 58.3335 58.332 54.5952 58.332 50.0002V30.0002C58.332 25.4052 54.5937 21.6668 49.9987 21.6668H29.9987Z" fill="white"/>
<defs>
<radialGradient id="paint0_radial_356_228" cx="0" cy="0" r="1" gradientUnits="userSpaceOnUse" gradientTransform="translate(32.301 70.0584) scale(74.8317 74.8317)">
<stop stop-color="#FFDD55"/>
<stop offset="0.328" stop-color="#FF543F"/>
<stop offset="0.348" stop-color="#FC5245"/>
<stop offset="0.504" stop-color="#E64771"/>
<stop offset="0.643" stop-color="#D53E91"/>
<stop offset="0.761" stop-color="#CC39A4"/>
<stop offset="0.841" stop-color="#C837AB"/>
</radialGradient>
<radialGradient id="paint1_radial_356_228" cx="0" cy="0" r="1" gradientUnits="userSpaceOnUse" gradientTransform="translate(19.6444 9.23391) scale(49.6883 33.1073)">
<stop stop-color="#4168C9"/>
<stop offset="0.999" stop-color="#4168C9" stop-opacity="0"/>
</radialGradient>
</defs>
</svg>
