<svg width="593" height="734" viewBox="0 0 593 734" fill="none" xmlns="http://www.w3.org/2000/svg">
<path d="M359.888 397.845C373.846 410.305 382.075 425.54 384.575 443.549C387.223 461.298 384.01 478.118 374.936 494.01C361.846 516.936 343.358 530.562 319.47 534.887C295.992 539.1 269.924 533.025 241.266 516.663L113.478 443.701L270.111 169.368L393.6 239.875C421.477 255.791 439.586 274.594 447.929 296.285C456.532 318.125 454.586 339.986 442.092 361.87C432.869 378.023 420.91 388.986 406.214 394.759C391.778 400.68 376.336 401.709 359.888 397.845ZM273.569 318.506L317.337 343.496C328.279 349.743 337.955 352.158 346.364 350.741C355.182 349.213 362.269 343.759 367.624 334.38C372.979 325.001 374.073 316.126 370.907 307.755C368.002 299.532 361.078 292.297 350.136 286.05L306.368 261.06L273.569 318.506ZM260.333 456.04C271.536 462.436 281.546 464.87 290.365 463.341C299.592 461.701 306.958 456.061 312.462 446.421C317.966 436.782 319.023 427.367 315.633 418.177C312.504 409.136 305.339 401.418 294.136 395.022L245.678 367.354L211.094 427.926L260.333 456.04Z" fill="#282828"/>
<path d="M107.25 580H163.25V613H64.5V437.5H107.25V580ZM266.641 614.75C250.141 614.75 234.974 610.917 221.141 603.25C207.474 595.583 196.557 584.917 188.391 571.25C180.391 557.417 176.391 541.917 176.391 524.75C176.391 507.583 180.391 492.167 188.391 478.5C196.557 464.833 207.474 454.167 221.141 446.5C234.974 438.833 250.141 435 266.641 435C283.141 435 298.224 438.833 311.891 446.5C325.724 454.167 336.557 464.833 344.391 478.5C352.391 492.167 356.391 507.583 356.391 524.75C356.391 541.917 352.391 557.417 344.391 571.25C336.391 584.917 325.557 595.583 311.891 603.25C298.224 610.917 283.141 614.75 266.641 614.75ZM266.641 575.75C280.641 575.75 291.807 571.083 300.141 561.75C308.641 552.417 312.891 540.083 312.891 524.75C312.891 509.25 308.641 496.917 300.141 487.75C291.807 478.417 280.641 473.75 266.641 473.75C252.474 473.75 241.141 478.333 232.641 487.5C224.307 496.667 220.141 509.083 220.141 524.75C220.141 540.25 224.307 552.667 232.641 562C241.141 571.167 252.474 575.75 266.641 575.75ZM496.674 493C493.507 487.167 488.924 482.75 482.924 479.75C477.091 476.583 470.174 475 462.174 475C448.34 475 437.257 479.583 428.924 488.75C420.59 497.75 416.424 509.833 416.424 525C416.424 541.167 420.757 553.833 429.424 563C438.257 572 450.34 576.5 465.674 576.5C476.174 576.5 485.007 573.833 492.174 568.5C499.507 563.167 504.84 555.5 508.174 545.5H453.924V514H546.924V553.75C543.757 564.417 538.341 574.333 530.674 583.5C523.174 592.667 513.59 600.083 501.924 605.75C490.257 611.417 477.091 614.25 462.424 614.25C445.09 614.25 429.59 610.5 415.924 603C402.424 595.333 391.84 584.75 384.174 571.25C376.674 557.75 372.924 542.333 372.924 525C372.924 507.667 376.674 492.25 384.174 478.75C391.84 465.083 402.424 454.5 415.924 447C429.424 439.333 444.84 435.5 462.174 435.5C483.174 435.5 500.841 440.583 515.174 450.75C529.674 460.917 539.257 475 543.924 493H496.674Z" fill="#282828" fill-opacity="0.05"/>
</svg>
