<svg width="40" height="40" viewBox="0 0 40 40" fill="none" xmlns="http://www.w3.org/2000/svg">
<g clip-path="url(#clip0_32_26)">
<path d="M31.4267 24.3733C33.2777 20.8356 33.8002 16.752 32.8996 12.8622C31.999 8.97252 29.7349 5.53405 26.5175 3.16984C23.3001 0.805637 19.3423 -0.327902 15.3611 -0.0253876C11.38 0.277126 7.63887 1.99568 4.81566 4.81889C1.99244 7.6421 0.273891 11.3832 -0.0286225 15.3644C-0.331136 19.3455 0.802402 23.3033 3.16661 26.5207C5.53082 29.7381 8.96929 32.0022 12.859 32.9028C16.7487 33.8034 20.8324 33.2809 24.3701 31.43L31.4601 38.5216C32.395 39.4585 33.6637 39.9856 34.9873 39.987C36.3108 39.9885 37.5807 39.464 38.5176 38.5291C39.4545 37.5943 39.9816 36.3255 39.983 35.0019C39.9844 33.6784 39.46 32.4085 38.5251 31.4716L31.4267 24.3733ZM3.33341 16.6666C3.33341 14.0296 4.1154 11.4517 5.58048 9.25904C7.04557 7.06639 9.12795 5.35742 11.5643 4.34825C14.0006 3.33908 16.6815 3.07504 19.2679 3.58951C21.8544 4.10398 24.2301 5.37385 26.0948 7.23855C27.9595 9.10325 29.2294 11.479 29.7439 14.0654C30.2584 16.6519 29.9943 19.3327 28.9851 21.7691C27.976 24.2054 26.267 26.2878 24.0743 27.7529C21.8817 29.218 19.3038 30 16.6667 30C13.1317 29.996 9.74266 28.59 7.24304 26.0904C4.74341 23.5907 3.33738 20.2016 3.33341 16.6666ZM36.1667 36.18C35.8552 36.4854 35.4363 36.6564 35.0001 36.6564C34.5638 36.6564 34.145 36.4854 33.8334 36.18L27.2217 29.5666C28.0746 28.8641 28.8562 28.0792 29.5551 27.2233L36.1751 33.8333C36.3319 33.9861 36.4563 34.169 36.5408 34.371C36.6253 34.573 36.6681 34.79 36.6667 35.009C36.6653 35.228 36.6197 35.4444 36.5327 35.6453C36.4456 35.8463 36.3189 36.0275 36.1601 36.1783L36.1667 36.18Z" fill="#282828"/>
<path d="M16.6667 6.66669C14.0154 6.66933 11.4734 7.72375 9.5986 9.59854C7.72381 11.4733 6.6694 14.0153 6.66675 16.6667C6.66675 17.1087 6.84234 17.5326 7.1549 17.8452C7.46746 18.1578 7.89139 18.3334 8.33341 18.3334C8.77544 18.3334 9.19937 18.1578 9.51193 17.8452C9.82449 17.5326 10.0001 17.1087 10.0001 16.6667C10.0001 14.8986 10.7025 13.2029 11.9527 11.9526C13.2029 10.7024 14.8986 10 16.6667 10C17.1088 10 17.5327 9.82443 17.8453 9.51186C18.1578 9.1993 18.3334 8.77538 18.3334 8.33335C18.3334 7.89133 18.1578 7.4674 17.8453 7.15484C17.5327 6.84228 17.1088 6.66669 16.6667 6.66669Z" fill="#282828"/>
</g>
<defs>
<clipPath id="clip0_32_26">
<rect width="40" height="40" fill="white"/>
</clipPath>
</defs>
</svg>
