<svg width="80" height="80" viewBox="0 0 80 80" fill="none" xmlns="http://www.w3.org/2000/svg">
<path d="M66.6733 69.9483L13.385 70C11.5533 70.0017 10.0533 68.505 10.0517 66.6733L10 13.385C9.99833 11.5533 11.495 10.0533 13.3267 10.0517L66.615 10C68.4467 9.99833 69.9467 11.495 69.9483 13.3267L70 66.615C70.0017 68.4467 68.505 69.9467 66.6733 69.9483Z" fill="url(#paint0_linear_356_237)"/>
<path fill-rule="evenodd" clip-rule="evenodd" d="M48.6805 34.345C51.3071 36.2216 54.5255 37.325 58.0005 37.325V30.64C57.3421 30.64 56.6871 30.5716 56.0438 30.435V35.6966C52.5688 35.6966 49.3521 34.5916 46.7238 32.7166V46.3566C46.7238 53.18 41.1888 58.7116 34.3621 58.7116C31.8155 58.7116 29.4471 57.9416 27.4805 56.6216C29.7255 58.915 32.8555 60.3383 36.3188 60.3383C43.1455 60.3383 48.6805 54.8066 48.6805 47.9833V34.345ZM51.0955 27.6016C49.7538 26.1366 48.8721 24.2416 48.6805 22.1466V21.2866H46.8255C47.2921 23.9483 48.8855 26.2233 51.0955 27.6016ZM31.7988 51.3866C31.0488 50.4033 30.6438 49.2016 30.6455 47.965C30.6455 44.8433 33.1771 42.3133 36.3005 42.3133C36.8821 42.3133 37.4605 42.4016 38.0155 42.5783V35.745C37.3671 35.6566 36.7138 35.6183 36.0588 35.6316V40.95C35.5038 40.7733 34.9255 40.685 34.3421 40.685C31.2188 40.685 28.6871 43.215 28.6871 46.3366C28.6888 48.545 29.9538 50.4566 31.7988 51.3866Z" fill="#EC407A"/>
<path fill-rule="evenodd" clip-rule="evenodd" d="M46.7243 32.7166C49.3509 34.5933 52.5693 35.6966 56.0443 35.6966V30.435C54.1043 30.0216 52.3876 29.0083 51.0959 27.6C48.8859 26.2216 47.2943 23.9483 46.8276 21.2866H41.9559V47.9833C41.9443 51.095 39.4176 53.615 36.3009 53.615C34.4643 53.615 32.8326 52.74 31.7993 51.385C29.9543 50.455 28.6893 48.5433 28.6893 46.3366C28.6893 43.215 31.2209 40.685 34.3443 40.685C34.9426 40.685 35.5193 40.7783 36.0609 40.95V35.6333C29.3543 35.7716 23.9609 41.2483 23.9609 47.985C23.9609 51.3483 25.3043 54.3966 27.4843 56.6233C29.4509 57.9433 31.8193 58.7133 34.3659 58.7133C41.1926 58.7133 46.7276 53.1816 46.7276 46.3583L46.7243 32.7166Z" fill="white"/>
<path fill-rule="evenodd" clip-rule="evenodd" d="M56.0433 30.4365V29.0132C54.2933 29.0165 52.58 28.5265 51.095 27.5999C52.4083 29.0382 54.1383 30.0299 56.0433 30.4365ZM46.825 21.2865C46.78 21.0315 46.7467 20.7765 46.7233 20.5182V19.6582H39.9967V46.3565C39.9867 49.4682 37.4583 51.9882 34.3417 51.9882C33.4267 51.9882 32.5633 51.7715 31.7983 51.3849C32.8317 52.7399 34.4633 53.6149 36.3 53.6149C39.4167 53.6149 41.9433 51.0949 41.955 47.9832V21.2865H46.825ZM36.0583 35.6332V34.1182C35.4967 34.0415 34.93 34.0032 34.3617 34.0032C27.5333 34.0032 22 39.5349 22 46.3582C22 50.6365 24.175 54.4065 27.48 56.6232C25.3 54.3965 23.9567 51.3482 23.9567 47.9849C23.9567 41.2482 29.3517 35.7715 36.0583 35.6332Z" fill="#81D4FA"/>
<defs>
<linearGradient id="paint0_linear_356_237" x1="39.9617" y1="10.265" x2="39.9617" y2="70.0767" gradientUnits="userSpaceOnUse">
<stop stop-color="#4C4C4C"/>
<stop offset="1" stop-color="#343434"/>
</linearGradient>
</defs>
</svg>
