<svg width="80" height="80" viewBox="0 0 80 80" fill="none" xmlns="http://www.w3.org/2000/svg">
<path d="M57.832 39.8333C56.832 39.5 56.1654 39.3333 56.6654 38C57.832 35.1666 57.9987 32.6666 56.6654 30.8333C54.332 27.5 47.832 27.6666 40.4987 30.6666C40.4987 30.6666 38.1654 31.6666 38.832 29.8333C39.9987 26.1666 39.832 23.1666 37.9987 21.5C33.9987 17.5 23.332 21.6666 14.1654 30.6666C7.33203 37.5 3.33203 44.6666 3.33203 50.8333C3.33203 62.8333 18.6654 70 33.832 70C53.4987 70 66.6654 58.6666 66.6654 49.6666C66.6654 44.1666 61.9987 41.1666 57.832 39.8333Z" fill="url(#paint0_linear_356_242)"/>
<path opacity="0.05" d="M29.7582 66.6602C18.3832 66.6602 9.17483 60.8652 8.33983 53.1802C8.0015 50.0618 9.0415 46.9102 11.3515 44.0685C15.2532 39.2652 22.2248 35.9402 29.9998 35.1752C31.1482 35.0635 32.3065 35.0068 33.4398 35.0068C44.9798 35.0068 53.9698 40.6752 54.8198 48.4868C55.1615 51.6952 54.1132 54.8952 51.7915 57.7452C47.9448 62.4618 40.9815 65.7318 33.1582 66.4918C32.0282 66.6035 30.8832 66.6602 29.7582 66.6602Z" fill="black"/>
<path opacity="0.07" d="M29.7605 65.8265C18.8122 65.8265 9.96054 60.3498 9.17054 53.0898C8.85721 50.1982 9.83388 47.2598 11.9989 44.5948C15.7639 39.9615 22.5222 36.7482 30.0839 36.0048C31.2055 35.8965 32.3355 35.8398 33.4439 35.8398C44.5505 35.8398 53.1939 41.1965 53.9955 48.5765C54.3122 51.5582 53.3289 54.5448 51.1489 57.2182C47.4405 61.7665 40.6872 64.9232 33.0805 65.6615C31.9772 65.7715 30.8605 65.8265 29.7605 65.8265Z" fill="black"/>
<path d="M53.1685 48.6669C52.3352 41.0002 42.1685 35.6669 30.1685 36.8335C18.3352 38.0002 9.16851 45.3335 10.0018 53.0002C10.8352 60.6669 21.1685 66.0002 33.0018 64.8335C45.0018 63.6669 54.0018 56.5002 53.1685 48.6669Z" fill="white"/>
<path d="M34.8348 50.6668C34.3348 51.5001 33.3348 52.0001 32.5014 51.6668C31.6681 51.3334 31.5014 50.3334 31.8348 49.5001C32.3348 48.6668 33.3348 48.1668 34.0014 48.6668C35.0014 48.8334 35.1681 49.6668 34.8348 50.6668ZM29.3348 54.6668C28.1681 56.3334 25.5014 57.1668 23.5014 56.3334C21.5014 55.5001 21.0014 53.5001 22.1681 52.0001C23.3348 50.3334 25.8348 49.6668 27.8348 50.3334C30.0014 51.0001 30.6681 53.0001 29.3348 54.6668ZM34.1681 42.0001C28.3348 40.5001 21.8348 43.3334 19.3348 48.3334C16.8348 53.5001 19.1681 59.1667 25.1681 61.0001C31.1681 63.0001 38.3348 60.0001 40.8348 54.5001C43.3348 49.1668 40.1681 43.5001 34.1681 42.0001Z" fill="url(#paint1_linear_356_242)"/>
<path d="M75.6213 36.3017C76.3546 34.2567 76.668 32.2033 76.668 30C76.668 19 67.668 10 56.668 10C55.8346 10 55.0013 10 54.168 10.1667C52.8346 10.1667 51.668 11.3333 51.668 12.6667C51.668 14 52.8346 15.1667 54.168 15.1667H54.3346C54.5013 15.1667 54.5013 15.1667 54.5013 15.1667C55.168 15 56.0013 15 56.668 15C65.0013 15 71.668 21.6667 71.668 30C71.668 31.6667 71.3346 33.3333 70.8346 34.8333C70.668 35.1667 70.668 35.5 70.668 35.8333C70.668 37.2133 71.788 38.3333 73.168 38.3333C73.4163 38.3333 73.653 38.285 73.8796 38.2183C73.8963 38.2133 73.913 38.2083 73.928 38.2033C74.7896 37.925 75.4496 37.205 75.6213 36.3017Z" fill="url(#paint2_linear_356_242)"/>
<path d="M56.668 20H55.5013C55.5013 20 55.5013 20 55.3346 20C54.168 20.1667 53.168 21.1667 53.168 22.5C53.168 23.8333 54.3346 25 55.668 25H56.5013C59.3346 25 61.5013 27.1667 61.5013 30C61.5013 30.5 61.3346 31.1667 61.168 31.6667C61.0013 32 61.0013 32.1667 61.0013 32.5C61.0013 33.8333 62.168 35 63.5013 35C64.5013 35 65.3346 34.3333 65.8346 33.5V33.3333C65.8346 33.1667 65.8346 33.1667 66.0013 33C66.5013 32 66.668 31 66.668 30C66.668 24.5 62.168 20 56.668 20Z" fill="url(#paint3_linear_356_242)"/>
<defs>
<linearGradient id="paint0_linear_356_242" x1="7.39203" y1="22.0466" x2="74.767" y2="86.7266" gradientUnits="userSpaceOnUse">
<stop stop-color="#F52537"/>
<stop offset="0.293" stop-color="#F32536"/>
<stop offset="0.465" stop-color="#EA2434"/>
<stop offset="0.605" stop-color="#DC2231"/>
<stop offset="0.729" stop-color="#C8202C"/>
<stop offset="0.841" stop-color="#AE1E25"/>
<stop offset="0.944" stop-color="#8F1A1D"/>
<stop offset="1" stop-color="#7A1818"/>
</linearGradient>
<linearGradient id="paint1_linear_356_242" x1="13.3564" y1="39.0534" x2="42.8598" y2="61.3234" gradientUnits="userSpaceOnUse">
<stop stop-color="#6E6E6E"/>
<stop offset="0.999" stop-color="#4D4D4D"/>
</linearGradient>
<linearGradient id="paint2_linear_356_242" x1="54.818" y1="1.9" x2="90.278" y2="67.1483" gradientUnits="userSpaceOnUse">
<stop stop-color="#FED100"/>
<stop offset="0.03" stop-color="#FDCE00"/>
<stop offset="1" stop-color="#E36001"/>
</linearGradient>
<linearGradient id="paint3_linear_356_242" x1="48.9446" y1="5.09333" x2="84.4046" y2="70.3417" gradientUnits="userSpaceOnUse">
<stop stop-color="#FED100"/>
<stop offset="0.03" stop-color="#FDCE00"/>
<stop offset="1" stop-color="#E36001"/>
</linearGradient>
</defs>
</svg>
