<svg width="80" height="80" viewBox="0 0 80 80" fill="none" xmlns="http://www.w3.org/2000/svg">
<path d="M75.0187 57.6002C74.287 61.3335 71.1787 64.1785 67.3387 64.7118C61.3037 65.6002 51.2454 66.6668 39.907 66.6668C28.752 66.6668 18.6937 65.6002 12.4754 64.7118C8.63537 64.1785 5.52536 61.3335 4.79536 57.6002C4.0637 53.5118 3.33203 47.4668 3.33203 40.0002C3.33203 32.5335 4.0637 26.4885 4.79536 22.4002C5.52703 18.6668 8.63537 15.8218 12.4754 15.2885C18.5104 14.4002 28.5687 13.3335 39.907 13.3335C51.2454 13.3335 61.1204 14.4002 67.3387 15.2885C71.1787 15.8218 74.2887 18.6668 75.0187 22.4002C75.7504 26.4885 76.6654 32.5335 76.6654 40.0002C76.482 47.4668 75.7504 53.5118 75.0187 57.6002Z" fill="url(#paint0_linear_356_223)"/>
<path opacity="0.05" d="M53.92 37.3999L34.86 24.6933C33.8983 24.0516 32.67 23.9916 31.6517 24.5383C30.6333 25.0833 30 26.1383 30 27.2933V52.7066C30 53.8616 30.6333 54.9183 31.6517 55.4633C32.115 55.7116 32.62 55.8333 33.125 55.8333C33.7317 55.8333 34.335 55.6566 34.8583 55.3083L53.9183 42.6016C54.79 42.0199 55.31 41.0483 55.31 40.0016C55.3117 38.9533 54.79 37.9816 53.92 37.3999Z" fill="black"/>
<path opacity="0.07" d="M34.467 25.395L52.4504 37.385C53.5987 38.21 54.372 38.9484 54.372 39.9067C54.372 40.865 53.9987 41.5334 53.1804 42.13C52.562 42.58 34.772 54.4034 34.772 54.4034C33.2704 55.41 30.832 55.1967 30.832 51.905V27.9067C30.832 24.565 33.472 24.7317 34.467 25.395Z" fill="black"/>
<path d="M31.668 52.6131V27.3881C31.668 26.1498 33.048 25.4098 34.0796 26.0981L52.9996 38.7114C53.9213 39.3248 53.9213 40.6781 52.9996 41.2931L34.0796 53.9064C33.048 54.5914 31.668 53.8531 31.668 52.6131Z" fill="white"/>
<defs>
<linearGradient id="paint0_linear_356_223" x1="16.3587" y1="16.4518" x2="68.742" y2="68.8352" gradientUnits="userSpaceOnUse">
<stop stop-color="#F44F5A"/>
<stop offset="0.443" stop-color="#EE3D4A"/>
<stop offset="1" stop-color="#E52030"/>
</linearGradient>
</defs>
</svg>
